<?xml version="1.0" encoding="UTF-8"?>
<svg width="24px" height="24px" viewBox="0 0 24 24" version="1.1" xmlns="http://www.w3.org/2000/svg" xmlns:xlink="http://www.w3.org/1999/xlink">
    <!-- Generator: Sketch 63.1 (92452) - https://sketch.com -->
    <title>Actions / Cloud Upload / 16px</title>
    <desc>Created with Sketch.</desc>
    <defs>
        <path d="M17.9857615,19 L17.9857615,20 L6.01230897,20 L6.01230897,19 L17.9857615,19 Z M12.021745,8.39386797 L15.92624,12.6995999 L15.2180523,13.4635902 L12.4958623,10.4619669 L12.4958623,17.3324458 L11.4998177,17.3324458 L11.4998177,10.5000034 L8.77563559,13.4657638 L8.07143204,12.6974264 L12.021745,8.39386797 Z M12.1785225,4 C14.0690152,4 15.6178646,5.59535955 15.7254374,7.60042655 L15.7254374,7.60042655 L16.4226686,7.60042655 C18.3609715,7.60042655 19.9994649,9.40879051 19.9994649,11.5507889 C20.0203819,12.615811 19.4347076,14.813234 17.0671095,15.4109504 L17.0671095,15.4109504 L16.8420034,14.3524489 C18.8807461,13.8370105 18.9983312,11.9235229 19.0033867,11.6049219 L19.0034203,11.5627432 C19.0034203,9.99889966 17.8211153,8.68718374 16.4226686,8.68718374 L16.4226686,8.68718374 L14.735369,8.68718374 L14.735369,7.82103826 C14.735369,6.31370605 13.5879256,5.08675718 12.1785225,5.08675718 C10.8348583,5.08675718 9.80594416,6.03658296 9.6774544,7.3961162 L9.6774544,7.3961162 L9.6774544,7.93949479 L8.6664691,7.93840804 C7.8228193,7.93840804 7.13754059,8.74586862 7.13754059,9.73807793 C7.13754059,9.86414177 7.14750104,9.98694533 7.16941402,10.1064886 L7.16941402,10.1064886 L7.29491564,10.8096205 L6.48413531,10.7378945 C5.68231938,10.7400681 4.99604463,11.5475286 4.99604463,12.539738 C4.99604463,13.5319473 5.68231938,14.3383211 6.52497314,14.3383211 L6.52497314,14.3383211 L6.99012599,14.3383211 L6.99012599,15.4250783 L6.52497314,15.4250783 C5.13349879,15.4250783 4,14.1307505 4,12.539738 C4,11.0976112 4.93130173,9.89783124 6.14149596,9.68591359 C6.16540103,8.11880973 7.28893937,6.85165085 8.6664691,6.85165085 L8.6664691,6.85165085 L8.75113289,6.85165085 C9.09676038,5.17587127 10.4782743,4 12.1785225,4 Z" id="path-1"></path>
    </defs>
    <g id="Actions-/-Cloud-Upload-/-16px" stroke="none" stroke-width="1" fill="none" fill-rule="evenodd">
        <mask id="mask-2" fill="white">
            <use xlink:href="#path-1"></use>
        </mask>
        <use id="Mask" fill="#303030" xlink:href="#path-1"></use>
        <g id="*Style*-/-Icon-/-Tint-/-Actionable---Light-Background-/-Interactive" mask="url(#mask-2)" fill="#303030">
            <g id="*Style*-/-Color-/-Action-/-Secondary">
                <rect id="Light-Theme" x="0" y="0" width="24" height="24"></rect>
            </g>
        </g>
    </g>
</svg>