<svg id="Layer_1" xmlns="http://www.w3.org/2000/svg" xmlns:xlink="http://www.w3.org/1999/xlink" viewBox="0 0 28 24" enable-background="new 0 0 28 24"><style>.st0{fill-rule:evenodd;clip-rule:evenodd;fill:#fff}</style><g transform="translate(-372 -319)" id="Page-1"><image width="5121" height="2881" xlink:href="74D3AE40.png" transform="translate(.097) scale(.2499)" overflow="visible" enable-background="new"/><g transform="translate(346 300)"><path id="Light-Theme" class="st0" d="M0 0h588v120H0z"/><path id="All-Themes" fill="none" stroke="#be271c" stroke-width="2" d="M1 1h586v118H1z"/></g><g id="Icon" transform="translate(372 319)"><path d="M14 .2l14 23.1H0L14 .2zM4.1 21h19.8L14 4.7 4.1 21zm9.9-1.2c-.6 0-1.2-.5-1.2-1.2 0-.6.5-1.2 1.2-1.2s1.2.5 1.2 1.2-.6 1.2-1.2 1.2zm-1.6-9.2h3.1l-.8 5.8h-1.6l-.7-5.8z" fill-rule="evenodd" clip-rule="evenodd" fill="#b0b0b0" id="Mask"/><defs><filter id="Adobe_OpacityMaskFilter" filterUnits="userSpaceOnUse" x="-2" y="-3" width="31.9" height="31.9"><feColorMatrix values="1 0 0 0 0 0 1 0 0 0 0 0 1 0 0 0 0 0 1 0"/></filter></defs><mask maskUnits="userSpaceOnUse" x="-2" y="-3" width="31.9" height="31.9" id="mask-2_1_"><g filter="url(#Adobe_OpacityMaskFilter)"><path id="path-1_1_" class="st0" d="M14 .2l14 23.1H0L14 .2zM4.1 21h19.8L14 4.7 4.1 21zm9.9-1.2c-.6 0-1.2-.5-1.2-1.2 0-.6.5-1.2 1.2-1.2s1.2.5 1.2 1.2-.6 1.2-1.2 1.2zm-1.6-9.2h3.1l-.8 5.8h-1.6l-.7-5.8z"/></g></mask><g mask="url(#mask-2_1_)"><path fill-rule="evenodd" clip-rule="evenodd" fill="#be271c" d="M0 0h31.9v31.9H0z" transform="translate(-2 -3)"/></g></g></g></svg>